HIERARCHY
ROOT Spine
{
    OFFSET 0.0 0.0 -0.0
    CHANNELS 6 Xposition Yposition Zposition Zrotation Xrotation Yrotation
    JOINT ShoulderCenter
    {
        OFFSET 0.0 34.95833206176758 0.0
        CHANNELS 3 Zrotation Xrotation Yrotation
        JOINT LeftShoulder
        {
            OFFSET 18.581157684326172 0.0 0.0
            CHANNELS 3 Zrotation Xrotation Yrotation
            JOINT LeftElbow
            {
                OFFSET 29.718015670776367 0.0 0.0
                CHANNELS 3 Zrotation Xrotation Yrotation
                JOINT LeftHand
                {
                    OFFSET 32.975372314453125 0.0 0.0
                    CHANNELS 3 Zrotation Xrotation Yrotation
                    End Site
                    {
                        OFFSET 13.190149307250977 0.0 0.0
                    }
                }
            }
        }
        JOINT RightShoulder
        {
            OFFSET -18.581157684326172 0.0 0.0
            CHANNELS 3 Zrotation Xrotation Yrotation
            JOINT RightElbow
            {
                OFFSET -29.718015670776367 0.0 0.0
                CHANNELS 3 Zrotation Xrotation Yrotation
                JOINT RightHand
                {
                    OFFSET -32.975372314453125 0.0 0.0
                    CHANNELS 3 Zrotation Xrotation Yrotation
                    End Site
                    {
                        OFFSET -13.190149307250977 0.0 0.0
                    }
                }
            }
        }
        End Site
        {
            OFFSET 0.0 13.983333587646484 0.0
        }
    }
    JOINT LeftHip
    {
        OFFSET 17.819648438130578 -17.819648438130578 0.0
        CHANNELS 3 Zrotation Xrotation Yrotation
        JOINT LeftKnee
        {
            OFFSET 0.0 -41.611083984375 0.0
            CHANNELS 3 Zrotation Xrotation Yrotation
            JOINT LeftFoot
            {
                OFFSET 0.0 -43.06352996826172 0.0
                CHANNELS 3 Zrotation Xrotation Yrotation
                End Site
                {
                    OFFSET 0.0 0.0 17.22541046142578
                }
            }
        }
    }
    JOINT RightHip
    {
        OFFSET -17.819648438130578 -17.819648438130578 0.0
        CHANNELS 3 Zrotation Xrotation Yrotation
        JOINT RightKnee
        {
            OFFSET 0.0 -41.611083984375 0.0
            CHANNELS 3 Zrotation Xrotation Yrotation
            JOINT RightFoot
            {
                OFFSET 0.0 -43.06352996826172 0.0
                CHANNELS 3 Zrotation Xrotation Yrotation
                End Site
                {
                    OFFSET 0.0 0.0 17.22541046142578
                }
            }
        }
    }
}
MOTION
Frames: 14
Frame Time: 0.03333333333333333
27.5 11.5 9.0 0.9849312925419403 0.9847858183274889 91.34626416754715 -8.636044979994135e-09 -1.1384841697095727e-07 -0.10637879843952026 95.2370823043606 6.447900612637594 170.1518891084182 -6.387204781743437e-07 2.5619847051483617e-06 27.786621516760526 -6.361109362927033e-15 6.361109362927033e-15 3.531125038440127e-31 -98.88093921442457 2.474097540659023 -170.27863116016155 -4.204446948360551e-06 -4.8857062988369256e-06 -37.86107981057218 0.0 6.3611093629270335e-15 0.0 -3.098036396309787 -7.841784636666002 -3.959683914584527 7.162440492221376 12.643483403919289 -33.61899369260574 1.987846675914698e-16 4.148813292844998e-33 2.391628031959871e-15 1.5297950955788755 0.531400022794766 17.80852666851386 -5.833521178706549 8.8047341844609 17.990819721231812 0.0 0.0 -3.0066180973209813e-15
27.5 11.5 9.0 1.1490432102227897 0.9847334872079381 91.6148497550892 -7.344693666189258e-08 1.0094671467917147e-07 -0.531518193350071 95.23383647922547 6.4348494988281315 169.9763547369896 2.2550660700654928e-06 1.674859384315086e-07 28.29011656511277 -6.3611093629270335e-15 0.0 0.0 -99.03266882230412 1.9731439221724585 -169.56944921032797 3.324074486248239e-06 2.8989386115301066e-06 -38.19964114823459 -3.531125038440127e-31 6.3611093629270335e-15 6.3611093629270335e-15 -3.1331905237771096 -7.797831488234528 -3.4159997217671307 7.341203590469263 12.67485419921433 -33.95967366491708 -1.4908850069360232e-16 -1.6447081268064096e-33 1.2641462454645031e-15 1.5370210921560699 0.6881104849845763 17.53281785380606 -5.833521178706549 8.8047341844609 17.990819721231812 0.0 0.0 -3.0066180973209813e-15
27.5 11.5 9.09999942779541 1.1490431892477107 0.984735003025769 91.61484975287979 -1.9417496131421436e-07 4.696646479152552e-08 -0.680807287641067 95.13728274916164 6.287897946194907 170.18879211083572 4.916199381657024e-06 -2.0068260312225673e-06 28.51838217676405 -6.3611093629270335e-15 -3.531125038440127e-31 6.3611093629270335e-15 -98.98397906440154 1.5223610595589057 -169.02290125240575 -2.8457075594315867e-06 -5.38022392095445e-06 -38.40787152041621 3.1805546814635168e-15 -6.3611093629270335e-15 1.7655625192200634e-31 -3.1279704938168056 -7.776637904573657 -3.446091500871539 7.480128656266211 12.66649958475588 -33.83879775961336 5.963540027744096e-16 -2.4848083448933737e-17 -1.4008107044336391e-15 1.537019742019554 0.688110346742311 17.676292599188628 -5.811394644561601 8.819290492662644 18.144344276751497 0.0 0.0 -2.459960261444439e-15
27.399999618530273 11.5 9.09999942779541 0.984928182056667 0.9847873726944745 91.60518095095581 1.1915052010519074e-07 -4.390611911572775e-08 -0.6710968194654688 95.03766274387718 5.8436231489945465 170.36129259270373 -1.6637527532282323e-06 1.362064546426196e-06 29.06996373349198 -6.3611093629270335e-15 6.3611093629270335e-15 3.531125038440127e-31 -99.09615821667622 1.953990602772705 -168.76908589921175 3.0976065206693556e-06 -2.587243670581972e-06 -38.352674230606134 3.1805546814635164e-15 0.0 0.0 -3.1283973192162113 -7.806826342868007 -4.242755693970266 7.306847675931399 12.502491728704394 -33.234637994380165 -4.969616689786745e-17 1.3362411644487784e-33 -3.0811623476677818e-15 1.6749126091824835 0.6593916130957689 18.09585866004008 -5.969244055273884 8.654776502001098 17.627591592300455 -7.951386703658794e-16 -5.586350158469732e-32 8.050779037454528e-15
27.399999618530273 11.5 9.09999942779541 1.149046241060226 0.9847348251245467 91.62032777748924 -3.354088669340664e-08 2.7161169609120413e-08 -0.8398252002568521 95.11831119370979 5.210335984145903 170.20216885752137 -1.9486264026402584e-06 5.728894255954121e-06 29.432516204301024 -3.531125038440127e-31 6.3611093629270335e-15 6.3611093629270335e-15 -99.19384070672604 2.254704846953421 -168.62746793635796 3.139887265165948e-06 1.5219596476410447e-07 -37.59514731987586 0.0 0.0 0.0 -3.1339411213592507 -7.797534015496837 -3.3374974435853146 7.648294002411629 12.53926257303242 -34.310801043951706 1.4908850069360235e-16 6.071680492694425e-33 4.666780672752865e-15 1.682206339472542 0.6827706332482675 17.44523910549801 -6.017922104340242 8.70572132489521 17.83876801475493 7.951386703658792e-16 -7.951386703658792e-16 -2.8326815131784447e-15
27.299999237060547 11.5 9.09999942779541 0.9849313429331344 0.820680564241071 91.35082447136728 1.076458619559486e-07 -1.0865746752164307e-08 -0.7281020285439694 95.05470347230687 5.2783229018196645 170.35049001604872 -8.471455520984179e-07 -9.81302063055215e-07 29.944852106406 0.0 3.1805546814635176e-15 0.0 -98.98896729500309 2.9287902980169878 -168.8070130250745 -4.789049278845375e-06 -6.573643176151679e-06 -37.07620524699017 3.1805546814635168e-15 1.7655625192200634e-31 6.3611093629270335e-15 -3.075244046223307 -7.976098419921434 -3.6065419872966618 7.804923334201717 12.74737780575265 -34.79054382226569 3.975693351829396e-16 -1.8858242240204537e-33 -5.435518254454253e-16 1.699952035590085 0.5262513203307988 17.799114199802506 -5.793339403178076 8.505126367322264 17.386827350204562 -3.975693351829396e-16 -4.569082691340984e-33 1.3169484227934873e-15
27.200000762939453 11.5 9.09999942779541 0.9849313478438484 0.82068064900821 91.08440109916293 6.007999025417995e-08 9.214966824768673e-08 -0.6146539814551144 95.06314501572395 5.357945753210821 170.30922604012937 -2.5589873635397785e-06 -2.3946078245274228e-06 30.138028265664396 0.0 -6.3611093629270335e-15 0.0 -99.09719109342501 3.330933755571944 -168.8251077632726 1.89938125998581e-07 -3.7007030470790965e-06 -36.39948320269054 0.0 0.0 6.3611093629270335e-15 -3.0379337470258876 -7.990304547594173 -3.859970880471321 7.687557340115869 12.817745078570159 -34.756014880338306 0.0 0.0 3.2861590361214852e-15 1.694747855987261 0.3949162634504902 17.84687840650965 -5.782537824796797 8.614019789374046 17.620159272498864 -3.975693351829396e-16 -4.569082691340984e-33 1.3169484227934873e-15
27.200000762939453 11.5 9.09999942779541 1.1490493972756135 0.8206367894668702 91.08236528798615 1.2480838773175032e-07 -7.400237545337107e-09 -0.7678757211602855 95.01437376007719 5.113568128062155 170.13762282362268 7.502499245839117e-07 1.4863593809545256e-07 30.293896966466267 0.0 0.0 0.0 -99.15953515312073 4.622479708386381 -168.88751896449068 -1.9229707217751178e-06 -4.206728406249798e-06 -35.67014389200462 3.1805546814635168e-15 -1.7655625192200634e-31 -6.3611093629270335e-15 -3.0336235903339843 -7.826442122868856 -3.3294511794491246 7.8073422047493795 12.613494651099531 -34.51613543088179 3.7272125173400585e-16 -1.1390715067409257e-32 -3.502026761084096e-15 1.9761005875388231 0.5535261476001113 17.145789732855455 -6.326250811165824 8.562739388301935 17.63722181094794 -3.9756933518293955e-16 7.951386703658791e-16 2.2611755938529684e-15
27.100000381469727 11.5 9.09999942779541 0.9849345821009989 0.8206805720414578 91.08440110390418 8.95251510210627e-08 8.644649435240046e-08 -0.7703420450817754 94.92704596132796 4.8164836796583606 170.4973422605818 3.2154322103492236e-07 -4.6159789640545635e-07 30.095249959549065 0.0 6.361109362927033e-15 0.0 -99.24898699845455 5.259396930282331 -169.23126796515464 5.924039796945162e-07 -2.7187239746902305e-06 -34.96253316794238 -3.1805546814635168e-15 -6.3611093629270335e-15 -6.3611093629270335e-15 -3.037933979079143 -7.99029717257166 -3.883052490236147 7.822776912172135 12.689754042789293 -35.05158549926739 -9.93923337957349e-17 -7.951386703658792e-16 4.985146741942329e-16 1.9729050736793534 0.38956659811318023 17.55832819994341 -6.265240489790841 8.607323766220649 17.632146209252785 -3.975693351829396e-16 9.138165382681968e-33 -2.6338968455869747e-15
27.100000381469727 11.5 9.09999942779541 1.1490463481762487 0.8206368216194356 90.82093166654845 6.727173094740678e-08 3.725409550105387e-08 -0.6621222072902639 94.94839326251699 4.986984171535213 170.31958369978165 -3.2534845630863875e-06 -4.7165686344085675e-07 29.929149668175885 0.0 0.0 0.0 -99.35835629041144 5.792780274866504 -169.463421910792 3.0452288071461e-06 1.7641663073908011e-06 -34.13958989357553 3.1805546814635168e-15 -6.3611093629270335e-15 1.7655625192200634e-31 -2.997707055728204 -7.840199701463322 -3.611066235988724 7.822776912172135 12.689754042789293 -35.05158549926739 -9.93923337957349e-17 -7.951386703658792e-16 4.985146741942329e-16 1.9735555755225416 0.5625268255141993 17.40706648757936 -6.326249720118155 8.56274713544646 17.637236128661485 -1.8966003624434275e-32 7.951386703658791e-16 2.7332891793827093e-15
27.000001907348633 11.5 9.09999942779541 1.1490463426589963 0.656525309176517 90.82086754378466 1.022464674669717e-07 1.3105314273782744e-07 -0.973424379426408 94.99513137384626 5.620906631634854 170.09320663860706 2.192521615410265e-06 -1.127647536770259e-06 30.139519892018704 0.0 0.0 0.0 -99.27892639532463 6.085604359342994 -169.6945648633081 3.3083515581521066e-06 2.893630612506934e-06 -33.73930115323545 3.1805546814635168e-15 6.3611093629270335e-15 -1.7655625192200634e-31 -2.8336199353576634 -7.842556396614493 -3.611092336412831 7.826474979088813 12.555904729820174 -34.77715641132129 1.242404172446686e-16 9.782713162106103e-33 9.022960302394058e-15 2.1376489406126704 0.5601847937216862 17.407223249884552 -6.367125369555357 8.439711404966376 17.431356622885136 -3.975693351829396e-16 -7.951386703658792e-16 -1.0684675883041502e-15
27.000001907348633 11.5 9.09999942779541 1.3131454950071835 0.6564849335522441 90.55740888247321 6.437548173180482e-09 -3.750541217710052e-08 -0.7059486587583884 94.99807029533244 5.635260574827308 169.95797984430584 8.141615761310837e-07 2.1069555064512255e-06 30.112254806988798 6.3611093629270335e-15 -6.3611093629270335e-15 -6.3611093629270335e-15 -99.31005135199524 7.335938057025988 -169.52856268743008 4.199633813428204e-06 3.0166003438476e-06 -33.83570682214052 0.0 0.0 0.0 -2.932255295497556 -7.6895050779457765 -3.3451103854868256 8.102018542280216 12.562756921815268 -35.0220079686377 1.4908850069360232e-16 7.935856651503207e-16 9.96641097084576e-16 2.136779729823391 0.733896854903249 17.25401881005101 -6.467160854193633 8.270829634638178 17.22194347841078 -3.975693351829396e-16 7.951386703658792e-16 2.33571984419977e-15
26.899999618530273 11.5 9.09999942779541 1.149046314676818 0.49240306662143624 90.55435082888395 -1.8059509187366887e-08 -7.112960049905794e-08 -0.7037776093762742 95.13941243531242 5.722724316720215 170.31124822081466 1.4117009734643278e-06 1.1747547312566732e-06 29.756929310095412 0.0 3.1805546814635164e-15 0.0 -99.26303429324769 7.035537061603828 -169.8663655194124 7.414857627831321e-08 -3.2028743142142156e-06 -33.42218039352404 0.0 0.0 0.0 -2.77025603072411 -7.855208008467847 -3.8725140572646497 7.986085780505702 12.63605917303353 -34.99136899813833 -5.031736898409079e-16 -7.982446807969959e-16 -2.153241731371663e-15 2.299135497878383 0.5685277978589182 17.673623565668738 -6.407989049123686 8.316629935321101 17.22404994421628 0.0 0.0 -1.6896696745274934e-15
26.899999618530273 11.5 9.09999942779541 1.3131393264856355 0.492372833022124 90.29091214704968 -8.496474154601214e-08 6.479479455115105e-08 -0.43944147278497125 95.02489842966716 6.070346228958928 170.1385561048334 -1.623463425262168e-06 2.5292089175079207e-06 29.54655225698408 6.361109362927033e-15 3.531125038440127e-31 6.361109362927033e-15 -99.4813235869427 7.031516327133588 -169.70745628252917 -2.7803799504874764e-06 -1.5630815099300624e-06 -33.47326095142003 0.0 6.3611093629270335e-15 0.0 -2.7321827529528666 -7.703891744597062 -3.6004090330068026 7.981207171632353 12.769838736816554 -35.262612516410094 -9.93923337957349e-17 1.2424041724466861e-17 1.1367998177887179e-15 2.4365178376322363 0.7421896579775011 17.448986553943286 -6.735336101719656 8.343303557946216 17.46456628071126 0.0 0.0 1.1927080055488192e-15
